<svg width="318" height="165" viewBox="0 0 318 165" fill="none" xmlns="http://www.w3.org/2000/svg">
<path d="M227.652 27.8599L264.683 25.2598L261.388 44.3054L261.331 44.6381L261.666 44.6754L298.924 48.8149L283.163 65.5298L282.815 65.8997L283.3 66.0512L316.3 76.3494L289.956 88.8407L289.425 89.0929L289.927 89.3992L314.821 104.576L280.925 111.368L280.426 111.468L280.735 111.872L294.662 130.143L257.176 130.365L256.838 130.367L256.86 130.704L258.146 149.99L221.59 143.533L221.383 143.497L221.268 143.673L209.563 161.683L178.476 149.286L178.327 149.227L178.191 149.311L154.801 163.763L133.05 146.945L132.923 146.847L132.769 146.891L100.556 155.97L90.7976 136.836L90.702 136.648L90.4922 136.663L53.4618 139.263L56.756 120.217L56.8136 119.885L56.478 119.847L19.2205 115.708L34.9811 98.9929L35.3299 98.623L34.8445 98.4716L1.84436 88.1733L28.1881 75.682L28.7199 75.4299L28.2174 75.1236L3.32364 59.9471L37.2195 53.1547L37.718 53.0548L37.4098 52.6504L23.4827 34.3797L60.9688 34.1573L61.3064 34.1553L61.284 33.8184L59.9987 14.5327L96.5544 20.9893L96.7615 21.0259L96.8761 20.8496L108.581 2.8399L139.669 15.2365L139.817 15.2957L139.953 15.2116L163.344 0.759792L185.095 17.5774L185.221 17.6753L185.375 17.6319L217.588 8.55274L227.347 27.6872L227.442 27.8746L227.652 27.8599Z" stroke="white" stroke-width="0.635546"/>
</svg>
