<svg width="436" height="74" viewBox="0 0 436 74" fill="none" xmlns="http://www.w3.org/2000/svg">
<path d="M48.6794 43.8677L40.5812 36.5497L48.6794 29.252V14.6362L24.3622 36.5497L48.6794 58.4632V43.8677Z" fill="#FF0044"/>
<path d="M0 0V73.1192H81.1401V0H0ZM69.5551 62.6591H11.585V10.4398H69.5326V62.6591H69.5551Z" fill="#FF0044"/>
<path d="M99.9453 72.3672V50.251H106.604V66.6911H112.745V50.251H119.404V66.6911H125.545V50.251H132.203V72.3672H99.9453Z" fill="white"/>
<path d="M138.412 72.3672V50.251H145.071V58.7853L153.146 50.251H160.862L152.089 59.4137L161.56 72.3672H153.844L147.703 63.995L145.071 66.6912V72.3874H138.412V72.3672Z" fill="white"/>
<path d="M166.756 69.6107C164.146 67.3403 162.842 64.5834 162.842 61.3197C162.842 58.056 164.146 55.2991 166.756 53.0287C169.365 50.7582 172.627 49.623 176.519 49.623C180.41 49.623 183.672 50.7582 186.282 53.0287C188.891 55.2991 190.196 58.056 190.196 61.3197C190.196 64.5834 188.891 67.3403 186.282 69.6107C183.672 71.8811 180.41 73.0163 176.519 73.0163C172.627 73.0163 169.365 71.8811 166.756 69.6107ZM171.682 56.941C170.355 58.1371 169.703 59.5966 169.703 61.3197C169.703 63.0428 170.355 64.5023 171.682 65.6983C173.009 66.8943 174.629 67.4822 176.541 67.4822C178.453 67.4822 180.073 66.8943 181.4 65.6983C182.727 64.5023 183.38 63.0428 183.38 61.3197C183.38 59.5966 182.727 58.1371 181.4 56.941C180.073 55.745 178.453 55.1572 176.541 55.1572C174.629 55.1572 172.987 55.745 171.682 56.941Z" fill="white"/>
<path d="M192.378 72.3659V66.8318C192.603 66.9129 192.783 66.9737 192.896 66.994C193.301 67.0953 193.638 67.1561 193.953 67.1561C194.515 67.1561 195.01 67.0345 195.438 66.771C195.865 66.5075 196.27 66.0412 196.652 65.352C197.035 64.6628 197.305 63.6492 197.507 62.291C197.71 60.9328 197.8 59.2503 197.8 57.2434V50.27H216.741V72.3862H210.082V55.946H204.481V57.2029C204.481 59.6557 204.346 61.7842 204.053 63.6289C203.761 65.4736 203.378 66.994 202.884 68.1697C202.389 69.3455 201.759 70.2982 201.016 71.028C200.252 71.7578 199.464 72.2646 198.609 72.5686C197.777 72.8727 196.81 73.0146 195.73 73.0146C194.988 73.0146 194.2 72.9132 193.413 72.6903C193.008 72.5889 192.671 72.4673 192.378 72.3659Z" fill="white"/>
<path d="M219.979 72.3672L229.27 50.251H236.626L245.916 72.3672H238.718L236.963 67.6236H228.91L227.155 72.3672H219.979ZM230.665 62.7382H235.231L233.027 56.4135H232.892L230.665 62.7382Z" fill="white"/>
<path d="M257.457 72.3672V50.251H275.34V55.4607H264.115V57.8325H268.839C271.426 57.8325 273.541 58.5217 275.16 59.9002C276.78 61.2787 277.59 63.022 277.59 65.0897C277.59 67.1574 276.78 68.9007 275.16 70.2792C273.541 71.6577 271.426 72.3469 268.839 72.3469H257.457V72.3672ZM264.115 67.1574H268.502C269.199 67.1574 269.784 66.9547 270.256 66.5492C270.729 66.1438 270.954 65.6573 270.954 65.0897C270.954 64.5221 270.729 64.0356 270.256 63.6301C269.784 63.2247 269.199 63.022 268.502 63.022H264.115V67.1574Z" fill="white"/>
<path d="M282.066 72.3672V50.251H288.725V62.4139L299.253 50.251H305.034V72.3672H298.375V60.2043L287.848 72.3672H282.066Z" fill="white"/>
<path d="M308.79 69.207L312.636 65.4162C313.019 65.8419 313.491 66.1866 314.099 66.4501C315.358 67.119 316.731 67.4637 318.238 67.4637C319.407 67.4637 320.285 67.2812 320.87 66.9163C321.455 66.5514 321.747 66.1055 321.747 65.5784C321.747 65.0513 321.477 64.6054 320.915 64.2405C320.375 63.8756 319.587 63.6932 318.575 63.6932H315.426V58.6456H318.058C319.07 58.6456 319.812 58.4834 320.307 58.1793C320.802 57.855 321.05 57.4495 321.05 56.9225C321.05 55.767 319.992 55.1791 317.9 55.1791C316.888 55.1791 315.831 55.4427 314.706 55.9697C314.346 56.1319 313.964 56.3954 313.514 56.7603L309.667 52.9695C310.364 52.3411 311.174 51.7938 312.052 51.3276C314.054 50.2126 316.303 49.645 318.778 49.645C321.724 49.645 324.041 50.2532 325.729 51.4897C327.416 52.7263 328.248 54.2061 328.248 55.9697C328.248 57.5104 327.506 58.7672 326.044 59.7605C325.414 60.1659 324.694 60.47 323.862 60.7132C324.851 61.0173 325.684 61.4025 326.381 61.889C328.091 63.0445 328.945 64.504 328.945 66.2474C328.945 68.1732 328.046 69.7746 326.268 71.072C324.491 72.3694 321.994 73.0383 318.778 73.0383C316.101 73.0383 313.626 72.4099 311.422 71.1328C310.409 70.5652 309.532 69.9368 308.79 69.207Z" fill="white"/>
<path d="M333.58 72.3672V50.251H340.238V58.2987H349.191V50.251H355.85V72.3672H349.191V63.995H340.238V72.3672H333.58Z" fill="white"/>
<path d="M362.059 72.3672V50.251H380.82V55.6229H368.717V58.7853H378.008V63.8329H368.717V66.9952H381.157V72.3672H362.059Z" fill="white"/>
<path d="M404.912 64.6232L408.938 68.7383C408.151 69.5694 407.229 70.279 406.194 70.8871C403.899 72.3061 401.245 72.9953 398.23 72.9953C394.316 72.9953 391.077 71.8601 388.468 69.5897C385.858 67.3193 384.553 64.5624 384.553 61.2987C384.553 58.035 385.858 55.2781 388.468 53.0077C391.077 50.7373 394.339 49.6021 398.23 49.6021C401.177 49.6021 403.809 50.3116 406.126 51.7508C407.161 52.3995 408.038 53.109 408.758 53.8591L404.732 57.9742C404.192 57.4471 403.607 56.9809 402.954 56.5552C401.425 55.6024 399.873 55.1362 398.253 55.1362C396.341 55.1362 394.721 55.724 393.394 56.9201C392.067 58.1161 391.414 59.5756 391.414 61.2987C391.414 63.0218 392.067 64.4813 393.394 65.6773C394.721 66.8733 396.341 67.4612 398.253 67.4612C399.85 67.4612 401.425 66.995 403.022 66.0422C403.719 65.6368 404.349 65.1503 404.912 64.6232Z" fill="white"/>
<path d="M410.063 72.3672L419.354 50.251H426.71L436 72.3672H428.824L427.069 67.6236H419.016L417.262 72.3672H410.063ZM420.748 62.7382H425.315L423.11 56.4135H422.975L420.748 62.7382Z" fill="white"/>
<path d="M131.552 25.6617L138.413 32.6554C137.063 34.0541 135.511 35.2704 133.757 36.3245C129.842 38.7368 125.321 39.9328 120.192 39.9328C113.533 39.9328 108 38.007 103.545 34.1352C99.0914 30.2633 96.8869 25.5603 96.8869 20.006C96.8869 14.4516 99.1139 9.72832 103.545 5.87674C108 2.00489 113.533 0.0791016 120.192 0.0791016C125.208 0.0791016 129.685 1.29539 133.644 3.74824C135.399 4.86317 136.883 6.05919 138.121 7.35656L131.26 14.3502C130.337 13.4583 129.325 12.6474 128.223 11.9176C125.636 10.2959 122.959 9.48507 120.214 9.48507C116.953 9.48507 114.186 10.4986 111.936 12.5258C109.687 14.5529 108.562 17.0463 108.562 19.9857C108.562 22.9251 109.687 25.4184 111.936 27.4456C114.186 29.4727 116.953 30.4863 120.214 30.4863C122.914 30.4863 125.636 29.6755 128.335 28.0537C129.527 27.3645 130.585 26.5537 131.552 25.6617Z" fill="white"/>
<path d="M143.385 38.8578V1.15283H154.745V21.8905L172.674 1.15283H182.527V38.8375H171.167V18.1201L153.238 38.8578H143.385Z" fill="white"/>
<path d="M191.074 38.8578V1.15283H202.435V14.8766H217.664V1.15283H229.024V38.8375H217.664V24.5664H202.435V38.8375H191.074V38.8578Z" fill="white"/>
<path d="M237.549 38.8578V1.15283H269.515V10.3155H248.909V15.6875H264.746V24.3029H248.909V29.6951H270.122V38.8578H237.549Z" fill="white"/>
<path d="M276.285 38.8578V1.15283H295.114C299.703 1.15283 303.437 2.40966 306.316 4.90305C309.196 7.39645 310.658 10.5588 310.658 14.3496C310.658 18.1403 309.218 21.3027 306.316 23.7961C303.437 26.2895 299.703 27.5463 295.114 27.5463H287.645V38.8578H276.285ZM287.623 18.3836H294.484C295.789 18.3836 296.913 17.9782 297.858 17.1673C298.803 16.3564 299.253 15.4239 299.253 14.3496C299.253 13.2752 298.78 12.3224 297.858 11.5116C296.913 10.7007 295.789 10.2953 294.484 10.2953H287.623V18.3836Z" fill="white"/>
<path d="M316.799 38.8578V1.15283H346.088V10.8426H328.159V38.8375H316.799V38.8578Z" fill="white"/>
<path d="M351.038 38.8578V1.15283H362.398V21.8905L380.327 1.15283H390.18V38.8375H378.82V18.1201L360.891 38.8578H351.038Z" fill="white"/>
<path d="M395.42 38.8594L404.081 24.8519C402.731 24.2843 401.539 23.4937 400.504 22.4801C398.119 20.3313 396.927 17.5339 396.927 14.0877C396.927 10.4186 398.367 7.3576 401.224 4.88448C404.103 2.41136 407.747 1.1748 412.156 1.1748H431.885V38.8594H420.525V27.0209H414.248L407.387 38.8594H395.42ZM412.764 17.8582H420.525V10.3172H412.764C411.459 10.3172 410.379 10.6821 409.547 11.3916C408.715 12.1011 408.287 13.0133 408.287 14.0877C408.287 15.1621 408.715 16.0541 409.547 16.7838C410.379 17.4933 411.437 17.8582 412.764 17.8582Z" fill="white"/>
</svg>
