<svg width="193" height="33" viewBox="0 0 193 33" fill="none" xmlns="http://www.w3.org/2000/svg">
<path d="M30.4952 4.35579H5.43306L7.22947 0H32.2916L30.4952 4.35579ZM29.5751 6.55296H4.51294L2.71653 10.9087H27.7787L29.5751 6.55296ZM26.8586 13.1059H1.79641L0 17.5003H25.0622L26.8586 13.1059Z" fill="white"/>
<path d="M90.2158 28.3702H94.6849C96.3937 28.3702 97.4014 28.0233 98.1463 27.1753C98.4968 26.7513 99.0226 26.0574 99.0226 24.6697C99.0226 23.3206 98.4968 22.3569 97.4891 21.6631C96.8756 21.2391 96.0432 21.0463 94.6411 21.0463H90.2158V28.3702ZM84.2569 32.7646V6.55273H103.667L101.958 10.9471H90.2158V16.7676H94.9916C98.8473 16.7676 100.863 17.5771 102.265 18.6179C103.36 19.4274 105.201 21.2391 105.201 24.8239C105.201 28.3702 103.273 30.2976 101.695 31.2998C99.8551 32.4177 97.8834 32.7646 93.8962 32.7646H84.2569ZM67.0814 32.7646V10.9471H58.4499V6.55273H82.3729L80.6641 10.9471H73.0403V32.7646H67.0814ZM43.2023 17.0375H46.576C47.6276 17.0375 48.1095 17.0375 48.6353 16.8833C50.0374 16.5364 50.9137 15.4185 50.9137 13.9152C50.9137 12.142 49.9936 11.3711 48.6353 11.0242C48.0657 10.87 47.4961 10.8314 46.3569 10.8314H43.2023V17.0375ZM43.2461 21.586V28.4859H47.3647C48.5915 28.4859 49.7307 28.4088 50.5632 27.7149C51.3957 27.0211 51.7462 26.1731 51.7462 25.0552C51.7462 24.2072 51.4833 23.3592 50.9575 22.7809C50.0812 21.8173 48.9858 21.586 47.1456 21.586H43.2461ZM52.7977 18.8106V18.8877C53.9369 19.2346 55.0323 19.8899 55.6019 20.2754C57.3545 21.5475 58.1432 23.2435 58.1432 25.4021C58.1432 28.987 55.9962 31.5696 52.4034 32.3791C51.308 32.6489 50.1688 32.726 48.0657 32.726H37.2872V6.55273H46.8389C48.8106 6.55273 50.125 6.62983 51.308 6.89966C54.7694 7.70914 57.0478 9.79067 57.0478 13.1057C57.0478 14.8788 56.3468 16.3822 55.1199 17.3844C54.5942 17.847 53.8931 18.3866 52.7977 18.8106Z" fill="white"/>
<path d="M127.268 6.10254H131.186V7.13109H128.561V14.4412H127.307V6.10254H127.268Z" fill="white"/>
<path d="M130.951 11.4281C130.951 9.26075 131.969 8.30566 133.498 8.30566C134.947 8.30566 135.927 9.22402 135.927 11.4281V11.7587H132.205C132.283 13.1178 132.714 13.6321 133.889 13.6321C134.712 13.6321 135.261 13.3382 135.535 13.1913V14.2566C135.143 14.4403 134.634 14.5872 133.772 14.5872C131.969 14.5505 130.951 13.5954 130.951 11.4281ZM132.165 10.8403H134.634C134.595 9.62809 134.124 9.22402 133.458 9.22402C132.792 9.22402 132.283 9.59136 132.165 10.8403Z" fill="white"/>
<path d="M137.141 8.37988H138.317V10.8411H140.746V8.37988H141.921V14.441H140.746V11.7227H138.356V14.441H137.18V8.37988H137.141Z" fill="white"/>
<path d="M143.253 11.4281C143.253 9.26075 144.272 8.30566 145.8 8.30566C147.25 8.30566 148.229 9.22402 148.229 11.4281V11.7587H144.507C144.585 13.1178 145.016 13.6321 146.192 13.6321C147.015 13.6321 147.563 13.3382 147.837 13.1913V14.2566C147.446 14.4403 146.936 14.5872 146.074 14.5872C144.272 14.5505 143.253 13.5954 143.253 11.4281ZM144.468 10.8403H146.936C146.897 9.62809 146.427 9.22402 145.761 9.22402C145.095 9.22402 144.585 9.59136 144.468 10.8403Z" fill="white"/>
<path d="M149.484 8.37913H150.62V9.22402H150.66C151.051 8.63627 151.639 8.30566 152.344 8.30566C153.755 8.30566 154.695 9.18728 154.695 11.4281C154.695 13.5954 153.677 14.5505 152.266 14.5505C151.6 14.5505 151.012 14.2198 150.699 13.6688H150.66V16.9382H149.484V8.37913ZM153.402 11.4281C153.402 9.77503 152.815 9.22402 152.109 9.22402C151.404 9.22402 150.66 9.88523 150.66 11.4281C150.66 12.9709 151.365 13.6321 152.031 13.6321C152.775 13.5954 153.402 13.0076 153.402 11.4281Z" fill="white"/>
<path d="M155.556 12.7878C155.556 11.4287 156.457 10.694 158.847 10.694H159.161V10.4368C159.161 9.51849 158.847 9.22462 158.142 9.22462C157.398 9.22462 156.928 9.40829 156.183 9.8491V8.78381C156.614 8.5634 157.28 8.26953 158.142 8.26953C159.709 8.26953 160.376 8.85728 160.376 10.4001V14.4409H159.239V13.596H159.2C158.847 14.147 158.338 14.5511 157.437 14.5511C156.262 14.5511 155.556 13.8898 155.556 12.7878ZM159.2 12.0531V11.5021H158.887C157.359 11.5021 156.849 11.9797 156.849 12.7511C156.849 13.3021 157.163 13.596 157.75 13.596C158.573 13.596 159.2 13.0082 159.2 12.0531Z" fill="white"/>
<path d="M161.159 14.4764V13.558C161.277 13.5948 161.394 13.5948 161.551 13.5948C162.021 13.5948 162.256 13.3744 162.256 10.252V8.3418H166.253V14.4396H165.078V9.29688H163.393V10.2887C163.393 14.0723 162.883 14.5499 161.825 14.5499C161.551 14.5499 161.355 14.5498 161.159 14.4764Z" fill="white"/>
<path d="M167.742 8.37988H168.917V10.6574H169.858C171.425 10.6574 172.169 11.3553 172.169 12.5676C172.169 13.7431 171.425 14.4777 169.858 14.4777H167.742V8.37988ZM169.897 11.539H168.957V13.5227H169.897C170.563 13.5227 170.955 13.1553 170.955 12.5308C170.916 11.9064 170.524 11.539 169.897 11.539Z" fill="white"/>
<path d="M173.188 8.37988H174.364V10.8411H176.793V8.37988H177.968V14.441H176.793V11.7227H174.403V14.441H173.227V8.37988H173.188Z" fill="white"/>
<path d="M179.535 8.37988H180.711V10.6574H181.651C183.218 10.6574 183.963 11.3553 183.963 12.5676C183.963 13.7431 183.218 14.4777 181.651 14.4777H179.535V8.37988ZM181.69 11.539H180.75V13.5227H181.69C182.356 13.5227 182.748 13.1553 182.748 12.5308C182.709 11.9064 182.356 11.539 181.69 11.539ZM184.942 8.37988H186.118V14.441H184.942V8.37988Z" fill="white"/>
<path d="M187.685 8.37953H188.861V13.008H188.9L190.976 8.37953H192.622V14.4406H191.447V9.81215H191.407L189.331 14.4406H187.685V8.37953ZM188.43 6.06528L189.409 5.95508C189.488 6.46935 189.683 6.61629 190.154 6.61629C190.624 6.61629 190.82 6.46935 190.859 5.95508L191.838 6.06528C191.76 7.13057 190.937 7.46117 190.114 7.46117C189.37 7.46117 188.508 7.1673 188.43 6.06528Z" fill="white"/>
<path d="M126.758 23.9173C126.758 21.8602 127.894 20.7949 129.853 20.7949C130.441 20.7949 130.833 20.9419 131.146 21.0153V22.0806C130.833 21.8969 130.441 21.7133 129.893 21.7133C128.756 21.7133 128.051 22.3745 128.051 23.9173C128.051 25.4601 128.756 26.1214 129.893 26.1214C130.48 26.1214 130.911 25.9009 131.146 25.754V26.8193C130.911 26.9295 130.441 27.0397 129.893 27.0397C127.894 27.0397 126.758 25.9744 126.758 23.9173Z" fill="white"/>
<path d="M132.165 20.8691H136.985V26.9303H135.809V21.7875H133.38V26.9303H132.205V20.8691H132.165Z" fill="white"/>
<path d="M138.239 23.9173C138.239 21.7867 139.336 20.7949 140.903 20.7949C142.471 20.7949 143.568 21.8235 143.568 23.9173C143.568 26.0479 142.471 27.0397 140.903 27.0397C139.336 27.0397 138.239 26.0111 138.239 23.9173ZM142.314 23.9173C142.314 22.2643 141.726 21.7133 140.942 21.7133C140.12 21.7133 139.532 22.2643 139.532 23.9173C139.532 25.5703 140.12 26.1214 140.942 26.1214C141.765 26.0846 142.314 25.5703 142.314 23.9173Z" fill="white"/>
<path d="M144.86 20.8691H146.036V23.3303H148.465V20.8691H149.64V26.9303H148.465V24.2119H146.036V26.9303H144.86V20.8691Z" fill="white"/>
<path d="M150.933 23.9173C150.933 21.8602 152.069 20.7949 154.028 20.7949C154.616 20.7949 155.008 20.9419 155.321 21.0153V22.0806C155.008 21.8969 154.616 21.7133 154.068 21.7133C152.931 21.7133 152.226 22.3745 152.226 23.9173C152.226 25.4601 152.931 26.1214 154.068 26.1214C154.655 26.1214 155.086 25.9009 155.321 25.754V26.8193C155.086 26.9295 154.616 27.0397 154.068 27.0397C152.109 27.0397 150.933 25.9744 150.933 23.9173Z" fill="white"/>
<path d="M155.791 23.9173C155.791 21.7867 156.888 20.7949 158.456 20.7949C160.023 20.7949 161.12 21.8235 161.12 23.9173C161.12 26.0479 160.023 27.0397 158.456 27.0397C156.849 27.0397 155.791 26.0111 155.791 23.9173ZM159.827 23.9173C159.827 22.2643 159.239 21.7133 158.456 21.7133C157.633 21.7133 157.045 22.2643 157.045 23.9173C157.045 25.5703 157.633 26.1214 158.456 26.1214C159.278 26.0846 159.827 25.5703 159.827 23.9173Z" fill="white"/>
<path d="M162.374 20.8684H163.51V21.7133H163.549C163.941 21.1255 164.529 20.7949 165.234 20.7949C166.645 20.7949 167.585 21.6765 167.585 23.9173C167.585 26.0846 166.566 27.0397 165.156 27.0397C164.49 27.0397 163.902 26.7091 163.589 26.1581H163.549V29.4274H162.374V20.8684ZM166.331 23.9173C166.331 22.2643 165.744 21.7133 165.038 21.7133C164.333 21.7133 163.589 22.3745 163.589 23.9173C163.589 25.4601 164.294 26.1214 164.96 26.1214C165.665 26.0846 166.331 25.4969 166.331 23.9173Z" fill="white"/>
</svg>
