<svg width="30" height="30" viewBox="0 0 30 30" fill="none" xmlns="http://www.w3.org/2000/svg">
<circle cx="15" cy="15" r="15" fill="white"/>
<path d="M13.3761 13.2533C13.3945 13.328 13.4187 13.4178 13.4499 13.5195C13.5479 13.8389 13.7127 14.2675 13.9789 14.7066C14.4798 15.5328 15.3323 16.3902 16.8018 16.6467L17.5571 15.8914L17.5594 15.8892C17.7539 15.697 18.0001 15.5655 18.2681 15.5105C18.536 15.4556 18.8141 15.4796 19.0686 15.5796L19.0711 15.5806L19.0711 15.5806L20.2086 16.0348L20.2112 16.0358L20.2112 16.0358C20.4689 16.1404 20.6898 16.3189 20.8462 16.5488C21.0025 16.7788 21.0873 17.0498 21.0898 17.3279L21.0899 17.3325H21.0899V19.4158V19.4198H21.0898C21.0883 19.6092 21.0485 19.7964 20.9728 19.97C20.897 20.1437 20.7869 20.3002 20.6491 20.4302C20.5112 20.5602 20.3485 20.6609 20.1707 20.7264C19.9929 20.7918 19.8037 20.8206 19.6145 20.811L19.6088 20.8107L19.6088 20.8107C15.4607 20.5526 12.93 18.6544 11.4123 16.4647C9.91007 14.2975 9.41673 11.8725 9.25996 10.5409L9.25958 10.5378L9.25959 10.5378C9.23767 10.3408 9.2577 10.1413 9.31838 9.95261C9.37906 9.7639 9.47901 9.59017 9.61165 9.44286C9.74429 9.29555 9.90662 9.17799 10.088 9.09792C10.2688 9.01808 10.4644 8.97732 10.6621 8.97829M13.3761 13.2533L10.6607 9.47829M13.3761 13.2533L14.1184 12.511L14.1191 12.5104C14.3132 12.3155 14.4457 12.0677 14.4999 11.7979C14.5539 11.5288 14.5277 11.2498 14.4244 10.9955M13.3761 13.2533L13.9607 11.1825M10.6621 8.97829C10.6626 8.97829 10.6632 8.97829 10.6638 8.9783L10.6607 9.47829M10.6621 8.97829H10.6607V9.47829M10.6621 8.97829H12.6732H12.6747V8.97829C12.954 8.97912 13.2268 9.0635 13.4578 9.22059C13.6887 9.37763 13.8674 9.60015 13.9709 9.85955L13.5066 10.0449L13.971 9.85977L14.4244 10.9955M10.6607 9.47829H12.6732C12.8528 9.47882 13.0281 9.53307 13.1766 9.63405C13.3251 9.73503 13.44 9.87814 13.5065 10.045L13.9607 11.1825M14.4244 10.9955C14.4242 10.9949 14.4239 10.9943 14.4237 10.9937L13.9607 11.1825M14.4244 10.9955L14.425 10.9971L13.9607 11.1825M13.326 13.0165L13.326 13.0166L13.326 13.0165Z" stroke="#000218"/>
</svg>
