<svg width="178" height="34" viewBox="0 0 178 34" fill="none" xmlns="http://www.w3.org/2000/svg">
<g clip-path="url(#clip0)">
<g clip-path="url(#clip1)">
<path d="M26.9295 4.79749H4.59699L6.19775 0.37793H28.5303L26.9295 4.79749ZM26.1096 7.02682H3.77709L2.17633 11.4464H24.5089L26.1096 7.02682ZM23.689 13.6757H1.35643L-0.244324 18.1344H22.0882L23.689 13.6757Z" fill="white"/>
<path d="M80.1449 29.1642H84.1273C85.65 29.1642 86.548 28.8122 87.2117 27.9518C87.524 27.5216 87.9926 26.8176 87.9926 25.4096C87.9926 24.0407 87.524 23.0629 86.6261 22.3589C86.0795 21.9287 85.3376 21.7331 84.0883 21.7331H80.1449V29.1642ZM74.8351 33.6229V7.02734H92.1311L90.6084 11.486H80.1449V17.3918H84.4006C87.8364 17.3918 89.6324 18.2131 90.8817 19.2691C91.8578 20.0905 93.4976 21.9287 93.4976 25.566C93.4976 29.1642 91.7797 31.1198 90.3742 32.1367C88.7344 33.2709 86.9775 33.6229 83.4245 33.6229H74.8351ZM59.5303 33.6229V11.486H51.8389V7.02734H73.1563L71.6336 11.486H64.8401V33.6229H59.5303ZM38.2519 17.6656H41.2582C42.1953 17.6656 42.6247 17.6656 43.0932 17.5091C44.3426 17.1571 45.1235 16.0229 45.1235 14.4976C45.1235 12.6985 44.3036 11.9162 43.0932 11.5642C42.5857 11.4078 42.0781 11.3687 41.063 11.3687H38.2519V17.6656ZM38.291 22.2807V29.2816H41.961C43.0542 29.2816 44.0693 29.2033 44.8111 28.4993C45.5529 27.7953 45.8653 26.9349 45.8653 25.8007C45.8653 24.9402 45.631 24.0798 45.1625 23.4931C44.3817 22.5153 43.4056 22.2807 41.7658 22.2807H38.291ZM46.8023 19.4647V19.5429C47.8174 19.8949 48.7935 20.5598 49.3011 20.9509C50.8628 22.2416 51.5656 23.9625 51.5656 26.1527C51.5656 29.79 49.6525 32.4104 46.4509 33.2318C45.4749 33.5056 44.4597 33.5838 42.5857 33.5838H32.9811V7.02734H41.4925C43.2494 7.02734 44.4207 7.10557 45.4749 7.37934C48.5592 8.20068 50.5895 10.3127 50.5895 13.6762C50.5895 15.4753 49.9648 17.0007 48.8716 18.0176C48.4031 18.4869 47.7784 19.0345 46.8023 19.4647Z" fill="white"/>
<path d="M113.253 4.79688H117.158V5.89199H114.542V13.6751H113.292V4.79688H113.253Z" fill="white"/>
<path d="M116.923 10.468C116.923 8.16044 117.938 7.14355 119.461 7.14355C120.906 7.14355 121.882 8.12133 121.882 10.468V10.82H118.173C118.251 12.2671 118.68 12.8147 119.852 12.8147C120.671 12.8147 121.218 12.5018 121.491 12.3453V13.4796C121.101 13.6751 120.593 13.8316 119.734 13.8316C117.938 13.7924 116.923 12.7756 116.923 10.468ZM118.134 9.84222H120.593C120.554 8.55156 120.086 8.12133 119.422 8.12133C118.758 8.12133 118.251 8.51244 118.134 9.84222Z" fill="white"/>
<path d="M123.092 7.22168H124.263V9.84212H126.684V7.22168H127.855V13.675H126.684V10.7808H124.302V13.675H123.131V7.22168H123.092Z" fill="white"/>
<path d="M129.183 10.468C129.183 8.16044 130.198 7.14355 131.721 7.14355C133.165 7.14355 134.141 8.12133 134.141 10.468V10.82H130.432C130.51 12.2671 130.94 12.8147 132.111 12.8147C132.931 12.8147 133.478 12.5018 133.751 12.3453V13.4796C133.36 13.6751 132.853 13.8316 131.994 13.8316C130.198 13.7924 129.183 12.7756 129.183 10.468ZM130.393 9.84222H132.853C132.814 8.55156 132.345 8.12133 131.682 8.12133C131.018 8.12133 130.51 8.51244 130.393 9.84222Z" fill="white"/>
<path d="M135.391 7.22178H136.523V8.12133H136.562C136.952 7.49555 137.538 7.14355 138.241 7.14355C139.646 7.14355 140.583 8.08222 140.583 10.468C140.583 12.7756 139.568 13.7924 138.163 13.7924C137.499 13.7924 136.913 13.4404 136.601 12.8538H136.562V16.3347H135.391V7.22178ZM139.295 10.468C139.295 8.708 138.709 8.12133 138.006 8.12133C137.304 8.12133 136.562 8.82533 136.562 10.468C136.562 12.1107 137.265 12.8147 137.928 12.8147C138.67 12.7756 139.295 12.1498 139.295 10.468Z" fill="white"/>
<path d="M141.442 11.9152C141.442 10.468 142.34 9.68582 144.722 9.68582H145.034V9.41205C145.034 8.43427 144.722 8.12138 144.019 8.12138C143.277 8.12138 142.809 8.31694 142.067 8.78627V7.65205C142.496 7.41738 143.16 7.10449 144.019 7.10449C145.581 7.10449 146.245 7.73027 146.245 9.37294V13.6752H145.112V12.7756H145.073C144.722 13.3623 144.214 13.7925 143.316 13.7925C142.145 13.7925 141.442 13.0885 141.442 11.9152ZM145.073 11.1329V10.5463H144.761C143.238 10.5463 142.731 11.0547 142.731 11.876C142.731 12.4627 143.043 12.7756 143.629 12.7756C144.449 12.7756 145.073 12.1498 145.073 11.1329Z" fill="white"/>
<path d="M147.025 13.7142V12.7364C147.142 12.7755 147.26 12.7755 147.416 12.7755C147.884 12.7755 148.119 12.5408 148.119 9.2164V7.18262H152.101V13.6751H150.93V8.19951H149.251V9.25551C149.251 13.284 148.743 13.7924 147.689 13.7924C147.416 13.7924 147.221 13.7924 147.025 13.7142Z" fill="white"/>
<path d="M153.585 7.22168H154.756V9.64657H155.693C157.255 9.64657 157.996 10.3897 157.996 11.6803C157.996 12.9319 157.255 13.7141 155.693 13.7141H153.585V7.22168ZM155.732 10.5852H154.795V12.6972H155.732C156.396 12.6972 156.786 12.3061 156.786 11.6412C156.747 10.9763 156.357 10.5852 155.732 10.5852Z" fill="white"/>
<path d="M159.012 7.22168H160.183V9.84212H162.603V7.22168H163.775V13.675H162.603V10.7808H160.222V13.675H159.051V7.22168H159.012Z" fill="white"/>
<path d="M165.336 7.22168H166.508V9.64657H167.445C169.007 9.64657 169.748 10.3897 169.748 11.6803C169.748 12.9319 169.007 13.7141 167.445 13.7141H165.336V7.22168ZM167.484 10.5852H166.547V12.6972H167.484C168.148 12.6972 168.538 12.3061 168.538 11.6412C168.499 10.9763 168.148 10.5852 167.484 10.5852ZM170.724 7.22168H171.896V13.675H170.724V7.22168Z" fill="white"/>
<path d="M173.457 7.22196H174.629V12.15H174.668L176.737 7.22196H178.377V13.6753H177.206V8.74729H177.166L175.097 13.6753H173.457V7.22196ZM174.199 4.75796L175.175 4.64062C175.253 5.18818 175.449 5.34462 175.917 5.34462C176.386 5.34462 176.581 5.18818 176.62 4.64062L177.596 4.75796C177.518 5.89218 176.698 6.24418 175.878 6.24418C175.136 6.24418 174.277 5.93129 174.199 4.75796Z" fill="white"/>
<path d="M112.746 23.7659C112.746 21.5756 113.878 20.4414 115.83 20.4414C116.416 20.4414 116.806 20.5979 117.119 20.6761V21.8103C116.806 21.6147 116.416 21.4192 115.869 21.4192C114.737 21.4192 114.034 22.1232 114.034 23.7659C114.034 25.4085 114.737 26.1125 115.869 26.1125C116.455 26.1125 116.884 25.8779 117.119 25.7214V26.8556C116.884 26.973 116.416 27.0903 115.869 27.0903C113.878 27.0903 112.746 25.9561 112.746 23.7659Z" fill="white"/>
<path d="M118.134 20.5195H122.936V26.9729H121.765V21.4973H119.344V26.9729H118.173V20.5195H118.134Z" fill="white"/>
<path d="M124.185 23.7659C124.185 21.4974 125.278 20.4414 126.84 20.4414C128.402 20.4414 129.495 21.5365 129.495 23.7659C129.495 26.0343 128.402 27.0903 126.84 27.0903C125.278 27.0903 124.185 25.9952 124.185 23.7659ZM128.246 23.7659C128.246 22.0059 127.66 21.4192 126.879 21.4192C126.059 21.4192 125.474 22.0059 125.474 23.7659C125.474 25.5259 126.059 26.1125 126.879 26.1125C127.699 26.0734 128.246 25.5259 128.246 23.7659Z" fill="white"/>
<path d="M130.784 20.5195H131.955V23.14H134.375V20.5195H135.547V26.9729H134.375V24.0786H131.955V26.9729H130.784V20.5195Z" fill="white"/>
<path d="M136.835 23.7659C136.835 21.5756 137.967 20.4414 139.92 20.4414C140.505 20.4414 140.896 20.5979 141.208 20.6761V21.8103C140.896 21.6147 140.505 21.4192 139.959 21.4192C138.826 21.4192 138.124 22.1232 138.124 23.7659C138.124 25.4085 138.826 26.1125 139.959 26.1125C140.544 26.1125 140.974 25.8779 141.208 25.7214V26.8556C140.974 26.973 140.505 27.0903 139.959 27.0903C138.006 27.0903 136.835 25.9561 136.835 23.7659Z" fill="white"/>
<path d="M141.677 23.7659C141.677 21.4974 142.77 20.4414 144.331 20.4414C145.893 20.4414 146.986 21.5365 146.986 23.7659C146.986 26.0343 145.893 27.0903 144.331 27.0903C142.731 27.0903 141.677 25.9952 141.677 23.7659ZM145.698 23.7659C145.698 22.0059 145.112 21.4192 144.331 21.4192C143.512 21.4192 142.926 22.0059 142.926 23.7659C142.926 25.5259 143.512 26.1125 144.331 26.1125C145.151 26.0734 145.698 25.5259 145.698 23.7659Z" fill="white"/>
<path d="M148.236 20.5196H149.368V21.4192H149.407C149.797 20.7934 150.383 20.4414 151.086 20.4414C152.491 20.4414 153.428 21.3801 153.428 23.7659C153.428 26.0734 152.413 27.0903 151.008 27.0903C150.344 27.0903 149.758 26.7383 149.446 26.1516H149.407V29.6325H148.236V20.5196ZM152.179 23.7659C152.179 22.0059 151.593 21.4192 150.891 21.4192C150.188 21.4192 149.446 22.1232 149.446 23.7659C149.446 25.4085 150.149 26.1125 150.812 26.1125C151.515 26.0734 152.179 25.4476 152.179 23.7659Z" fill="white"/>
</g>
</g>
<defs>
<clipPath id="clip0">
<rect width="178" height="34" fill="white"/>
</clipPath>
<clipPath id="clip1">
<rect width="178.621" height="33.2444" fill="white" transform="translate(-0.244324 0.37793)"/>
</clipPath>
</defs>
</svg>
