<svg width="205" height="35" viewBox="0 0 205 35" fill="none" xmlns="http://www.w3.org/2000/svg">
<path d="M22.7812 20.5295L18.9914 17.1048L22.7812 13.6896V6.84961L11.4011 17.1048L22.7812 27.3599V20.5295Z" fill="#FF0044"/>
<path d="M0 0V34.2187H37.9723V0H0ZM32.5507 29.3235H5.42161V4.88567H32.5402V29.3235H32.5507Z" fill="#FF0044"/>
<path d="M46.7729 33.8666V23.5166H49.889V31.2104H52.763V23.5166H55.8791V31.2104H58.7531V23.5166H61.8692V33.8666H46.7729Z" fill="white"/>
<path d="M64.7748 33.8666V23.5166H67.8909V27.5105L71.6702 23.5166H75.2811L71.1754 27.8046L75.6075 33.8666H71.9966L69.1226 29.9486L67.8909 31.2104V33.8761H64.7748V33.8666Z" fill="white"/>
<path d="M78.0392 32.5766C76.818 31.5141 76.2074 30.2239 76.2074 28.6965C76.2074 27.1691 76.818 25.8789 78.0392 24.8164C79.2603 23.7539 80.7868 23.2227 82.6081 23.2227C84.4293 23.2227 85.9558 23.7539 87.177 24.8164C88.3981 25.8789 89.0087 27.1691 89.0087 28.6965C89.0087 30.2239 88.3981 31.5141 87.177 32.5766C85.9558 33.6391 84.4293 34.1704 82.6081 34.1704C80.7868 34.1704 79.2603 33.6391 78.0392 32.5766ZM80.3447 26.6474C79.7236 27.2071 79.4183 27.8901 79.4183 28.6965C79.4183 29.5029 79.7236 30.1859 80.3447 30.7456C80.9658 31.3054 81.7238 31.5805 82.6186 31.5805C83.5134 31.5805 84.2714 31.3054 84.8925 30.7456C85.5136 30.1859 85.8189 29.5029 85.8189 28.6965C85.8189 27.8901 85.5136 27.2071 84.8925 26.6474C84.2714 26.0877 83.5134 25.8125 82.6186 25.8125C81.7238 25.8125 80.9553 26.0877 80.3447 26.6474Z" fill="white"/>
<path d="M90.0302 33.8659V31.2761C90.1354 31.314 90.2196 31.3425 90.2723 31.3519C90.4618 31.3994 90.6197 31.4278 90.7671 31.4278C91.0302 31.4278 91.2619 31.3709 91.4619 31.2476C91.6619 31.1243 91.8514 30.9061 92.0304 30.5835C92.2093 30.261 92.3356 29.7866 92.4304 29.151C92.5251 28.5154 92.5673 27.728 92.5673 26.7888V23.5254H101.431V33.8754H98.3152V26.1817H95.6939V26.7699C95.6939 27.9178 95.6307 28.9139 95.4939 29.7772C95.357 30.6404 95.178 31.3519 94.9464 31.9022C94.7148 32.4524 94.4201 32.8983 94.0727 33.2398C93.7147 33.5813 93.3463 33.8185 92.9462 33.9608C92.5567 34.1031 92.104 34.1695 91.5987 34.1695C91.2513 34.1695 90.8829 34.1221 90.5144 34.0177C90.3249 33.9703 90.167 33.9134 90.0302 33.8659Z" fill="white"/>
<path d="M102.947 33.8666L107.295 23.5166H110.737L115.085 33.8666H111.716L110.895 31.6467H107.126L106.305 33.8666H102.947ZM107.948 29.3604H110.085L109.053 26.4006H108.99L107.948 29.3604Z" fill="white"/>
<path d="M120.486 33.8666V23.5166H128.855V25.9547H123.602V27.0646H125.813C127.023 27.0646 128.013 27.3872 128.771 28.0323C129.529 28.6774 129.908 29.4932 129.908 30.4609C129.908 31.4285 129.529 32.2444 128.771 32.8895C128.013 33.5346 127.023 33.8572 125.813 33.8572H120.486V33.8666ZM123.602 31.4285H125.655C125.981 31.4285 126.255 31.3337 126.476 31.1439C126.697 30.9542 126.802 30.7265 126.802 30.4609C126.802 30.1953 126.697 29.9676 126.476 29.7779C126.255 29.5881 125.981 29.4932 125.655 29.4932H123.602V31.4285Z" fill="white"/>
<path d="M132.003 33.8666V23.5166H135.119V29.2086L140.046 23.5166H142.751V33.8666H139.635V28.1746L134.708 33.8666H132.003Z" fill="white"/>
<path d="M144.509 32.3881L146.309 30.6141C146.488 30.8133 146.709 30.9746 146.993 31.0979C147.583 31.411 148.225 31.5723 148.93 31.5723C149.478 31.5723 149.888 31.4869 150.162 31.3161C150.436 31.1453 150.573 30.9366 150.573 30.69C150.573 30.4433 150.446 30.2346 150.183 30.0639C149.931 29.8931 149.562 29.8077 149.088 29.8077H147.615V27.4455H148.846C149.32 27.4455 149.667 27.3696 149.899 27.2273C150.131 27.0755 150.246 26.8858 150.246 26.6391C150.246 26.0984 149.752 25.8233 148.773 25.8233C148.299 25.8233 147.804 25.9466 147.278 26.1933C147.109 26.2692 146.93 26.3925 146.72 26.5632L144.92 24.7892C145.246 24.4951 145.625 24.239 146.035 24.0208C146.972 23.499 148.025 23.2334 149.183 23.2334C150.562 23.2334 151.647 23.518 152.436 24.0967C153.226 24.6754 153.615 25.3679 153.615 26.1933C153.615 26.9143 153.268 27.5024 152.583 27.9673C152.289 28.157 151.952 28.2993 151.562 28.4132C152.026 28.5555 152.415 28.7357 152.741 28.9634C153.541 29.5041 153.941 30.1872 153.941 31.003C153.941 31.9043 153.52 32.6537 152.689 33.2609C151.857 33.868 150.689 34.1811 149.183 34.1811C147.93 34.1811 146.772 33.887 145.741 33.2893C145.267 33.0237 144.856 32.7296 144.509 32.3881Z" fill="white"/>
<path d="M156.11 33.8666V23.5166H159.226V27.2828H163.416V23.5166H166.532V33.8666H163.416V29.9486H159.226V33.8666H156.11Z" fill="white"/>
<path d="M169.438 33.8666V23.5166H178.218V26.0306H172.554V27.5105H176.902V29.8727H172.554V31.3526H178.376V33.8666H169.438Z" fill="white"/>
<path d="M189.493 30.2426L191.377 32.1684C191.008 32.5573 190.577 32.8894 190.093 33.174C189.019 33.838 187.777 34.1606 186.366 34.1606C184.534 34.1606 183.018 33.6293 181.797 32.5668C180.576 31.5043 179.965 30.2141 179.965 28.6867C179.965 27.1594 180.576 25.8692 181.797 24.8067C183.018 23.7441 184.545 23.2129 186.366 23.2129C187.745 23.2129 188.977 23.5449 190.061 24.2185C190.545 24.5221 190.956 24.8541 191.293 25.2051L189.408 27.1309C189.156 26.8843 188.882 26.6661 188.577 26.4668C187.861 26.021 187.134 25.8028 186.376 25.8028C185.482 25.8028 184.724 26.0779 184.102 26.6376C183.481 27.1973 183.176 27.8804 183.176 28.6867C183.176 29.4931 183.481 30.1762 184.102 30.7359C184.724 31.2956 185.482 31.5707 186.376 31.5707C187.124 31.5707 187.861 31.3525 188.608 30.9066C188.935 30.7169 189.229 30.4892 189.493 30.2426Z" fill="white"/>
<path d="M191.903 33.8666L196.251 23.5166H199.694L204.041 33.8666H200.683L199.862 31.6467H196.093L195.272 33.8666H191.903ZM196.904 29.3604H199.041L198.009 26.4006H197.946L196.904 29.3604Z" fill="white"/>
<path d="M61.5643 12.0094L64.7752 15.2823C64.1436 15.9369 63.4172 16.5061 62.596 16.9994C60.7643 18.1283 58.6483 18.688 56.248 18.688C53.1319 18.688 50.5422 17.7868 48.4577 15.9748C46.3733 14.1629 45.3416 11.9619 45.3416 9.36258C45.3416 6.76321 46.3838 4.5528 48.4577 2.75032C50.5422 0.93835 53.1319 0.0371094 56.248 0.0371094C58.5956 0.0371094 60.6906 0.606314 62.5434 1.75421C63.3645 2.27598 64.0593 2.8357 64.6383 3.44285L61.4275 6.71578C60.9959 6.29836 60.5221 5.91889 60.0063 5.57737C58.7956 4.81843 57.5429 4.43896 56.2585 4.43896C54.7321 4.43896 53.4372 4.9133 52.3845 5.86197C51.3317 6.81065 50.8053 7.97751 50.8053 9.35309C50.8053 10.7287 51.3317 11.8955 52.3845 12.8442C53.4372 13.7929 54.7321 14.2672 56.2585 14.2672C57.5218 14.2672 58.7956 13.8878 60.0589 13.1288C60.6169 12.8063 61.1117 12.4268 61.5643 12.0094Z" fill="white"/>
<path d="M67.1021 18.1844V0.539062H72.4184V10.244L80.8087 0.539062H85.4197V18.1749H80.1034V8.47947L71.713 18.1844H67.1021Z" fill="white"/>
<path d="M89.42 18.1844V0.539062H94.7363V6.96159H101.863V0.539062H107.18V18.1749H101.863V11.4963H94.7363V18.1749H89.42V18.1844Z" fill="white"/>
<path d="M111.169 18.1844V0.539062H126.129V4.82707H116.486V7.34106H123.897V11.3729H116.486V13.8964H126.413V18.1844H111.169Z" fill="white"/>
<path d="M129.297 18.1844V0.539062H138.109C140.256 0.539062 142.004 1.12724 143.351 2.29411C144.699 3.46098 145.383 4.94091 145.383 6.71493C145.383 8.48895 144.709 9.96888 143.351 11.1358C142.004 12.3026 140.256 12.8908 138.109 12.8908H134.614V18.1844H129.297ZM134.603 8.60279H137.814C138.425 8.60279 138.951 8.41306 139.393 8.03359C139.835 7.65412 140.046 7.21773 140.046 6.71493C140.046 6.21213 139.825 5.76626 139.393 5.38679C138.951 5.00732 138.425 4.81758 137.814 4.81758H134.603V8.60279Z" fill="white"/>
<path d="M148.257 18.1844V0.539062H161.964V5.07373H153.574V18.1749H148.257V18.1844Z" fill="white"/>
<path d="M164.281 18.1844V0.539062H169.597V10.244L177.987 0.539062H182.598V18.1749H177.282V8.47947L168.892 18.1844H164.281Z" fill="white"/>
<path d="M185.051 18.1856L189.104 11.6303C188.472 11.3647 187.914 10.9947 187.43 10.5204C186.314 9.51477 185.756 8.2056 185.756 6.59286C185.756 4.87576 186.43 3.44326 187.767 2.28588C189.114 1.1285 190.82 0.549805 192.883 0.549805H202.115V18.1856H196.799V12.6454H193.862L190.651 18.1856H185.051ZM193.167 8.35739H196.799V4.82832H193.167C192.557 4.82832 192.051 4.99908 191.662 5.33112C191.272 5.66316 191.072 6.09006 191.072 6.59286C191.072 7.09565 191.272 7.51307 191.662 7.85459C192.051 8.18663 192.546 8.35739 193.167 8.35739Z" fill="white"/>
</svg>
