<svg width="482" height="43" viewBox="0 0 482 43" fill="none" xmlns="http://www.w3.org/2000/svg">
<path d="M0 30.9713V22.821H4.95205V30.9713C4.95205 34.0092 6.13463 37.5657 10.791 37.5657C14.2649 37.5657 15.9648 35.3429 15.9648 32.0087V29.4154C15.9648 24.5251 13.2301 23.4878 8.94325 21.6355C4.21294 19.6349 0.813023 17.5603 0.813023 11.2623V9.03948C0.813023 3.48242 4.73031 0.0740944 10.5693 0.0740944C17.3691 0.0740944 20.6951 4.29746 20.6951 10.5955V12.2996H15.9648V10.5955C15.9648 7.33532 14.7822 4.51974 10.6432 4.51974C7.39111 4.51974 5.83898 6.52028 5.83898 9.03948V11.3364C5.83898 15.3375 8.49978 16.3007 11.604 17.6344C17.2213 19.8572 20.9168 22.5987 20.9168 29.4895V32.1568C20.9168 38.2326 16.9996 42.0114 10.7171 42.0114C3.69556 42.0114 0 38.0103 0 30.9713ZM31.0427 28.6744L22.3212 0.666847H27.6428L33.1861 20.7463L33.4817 22.5987H33.5557L33.9252 20.7463L39.3207 0.666847H44.6423L35.9947 28.6744V41.4186H31.0427V28.6744ZM48.4118 0.666847H53.9551L64.3027 27.4148L65.4853 30.8972H65.5592L65.4853 26.9703V0.666847H70.4373V41.3445H64.894L54.5464 14.5965L53.3638 11.1141H53.2899L53.3638 14.967V41.3445H48.4118V0.666847ZM76.6458 0.666847H94.0889V5.18659H81.5979V18.3012H92.3889V22.821H81.5979V36.973H94.2367V41.4186H76.6458V0.666847ZM123.358 27.7112V14.3743C123.358 4.51974 126.61 0 134.223 0C142.427 0 144.718 5.40887 144.718 12.0773V14.3743H139.84V12.0773C139.84 7.77988 138.953 4.44565 134.297 4.44565C130.601 4.44565 128.384 7.18713 128.384 13.7815V28.1558C128.384 34.9724 130.601 37.4916 134.223 37.4916C138.362 37.4916 140.283 35.2688 140.283 28.9708V22.5987H132.597V18.1531H144.94V28.3039C144.94 36.1579 142.796 42.0114 134.37 42.0114C126.684 42.0114 123.358 37.4916 123.358 27.7112ZM154.4 28.6744L145.679 0.666847H151L156.544 20.7463L156.839 22.5987H156.913L157.283 20.7463L162.678 0.666847H168L159.352 28.6744V41.4186H154.4V28.6744ZM190 0.73526H199.535C205.226 0.73526 209.069 3.40265 209.069 9.55246V12.0717C209.069 15.6282 207.739 18.5178 204.56 19.8515V19.9256C208.256 20.8889 210.326 23.6303 210.326 28.2242V31.1879C210.326 37.7082 207.443 41.4129 200.348 41.4129H190V0.73526ZM199.239 18.1474C202.787 18.1474 204.339 16.1468 204.339 12.8126V10.2934C204.339 7.03326 202.713 5.255 199.091 5.255H194.952V18.1474H199.239ZM199.682 36.9673C203.6 36.9673 205.374 34.9667 205.374 31.1879V28.2983C205.374 24.2231 203.156 22.593 199.535 22.593H195.026V36.9673H199.682ZM249.572 0.73526H256.15L265.537 41.4129H260.437L258.368 32.003H247.355L245.286 41.4129H240.186L249.572 0.73526ZM257.407 27.5573L253.49 9.55246L252.972 6.5146H252.898L252.381 9.55246L248.39 27.5573H257.407ZM269.011 0.73526H274.554L284.902 27.4832L286.084 30.9657H286.158L286.084 27.0387V0.73526H291.036V41.4129H285.493L275.146 14.665L273.963 11.1825H273.889L273.963 15.1095V41.487H269.011V0.73526ZM440.102 0.666851H445.645L455.993 27.4148L457.175 30.8972H457.249L457.175 26.9703V0.592754H462.127V41.2704H456.584L446.236 14.5224L445.054 11.04H444.98L445.054 14.967V41.3445H440.102V0.666851ZM457.175 0.666851H462.719L473.066 27.4148L474.249 30.8972H474.323L474.249 26.9703V0.592754H479.201V41.2704H473.658L463.31 14.5224L462.127 11.04H462.053L462.127 14.967L457.175 0.666851ZM297.097 0.73526H306.04C314.54 0.73526 318.014 5.40319 318.014 17.2583V24.5936C318.014 36.6709 314.54 41.4129 306.114 41.4129H297.097V0.73526ZM305.597 36.9673C310.549 36.9673 313.062 34.1517 313.062 25.1863V16.6655C313.062 7.92239 310.623 5.18091 305.597 5.18091H302.049V37.0414H305.597V36.9673ZM341.43 0.666851H358.726V5.18658H346.383V19.4126H357.1V23.8583H346.383V41.4186H341.43V0.666851ZM361.165 27.6371V14.3002C361.165 4.74202 364.565 0.0740929 372.104 0.0740929C379.716 0.0740929 383.116 4.81611 383.116 14.3002V27.6371C383.116 37.2693 379.716 42.0114 372.178 42.0114C364.491 42.0114 361.165 37.2693 361.165 27.6371ZM372.104 37.6398C376.021 37.6398 378.09 34.8242 378.09 28.0817V14.0038C378.09 7.40941 376.095 4.59383 372.104 4.59383C368.112 4.59383 366.117 7.40941 366.117 14.0038V28.0817C366.117 34.7501 368.112 37.6398 372.104 37.6398ZM388.068 0.666851H398.12C404.625 0.666851 408.32 3.92699 408.32 10.6696V13.7074C408.32 18.4494 405.142 22.08 401.077 22.6728V22.9692L404.698 23.2656L411.868 41.3445H406.546L402.038 28.8967L401.003 24.8956H397.307H393.02V41.3445H388.068V0.666851ZM397.455 20.45C400.929 20.45 403.294 18.7458 403.294 14.0038V10.7436C403.294 7.18712 401.52 5.18658 397.899 5.18658H393.02V20.45H397.455ZM215.352 0.73526H225.403C231.908 0.73526 235.603 3.9954 235.603 10.738V13.7758C235.603 18.5178 232.425 22.1485 228.36 22.7412V23.0376L231.982 23.334L239.151 41.4129H233.903L229.395 28.9651L228.36 24.964H224.664H220.377V41.4129H215.425V0.73526H215.352ZM224.738 20.5184C228.212 20.5184 230.577 18.8142 230.577 14.0722V10.8121C230.577 7.25554 228.803 5.255 225.182 5.255H220.304V20.5184H224.738ZM98.3757 0.666847H108.428C114.932 0.666847 118.627 3.92699 118.627 10.6696V13.7074C118.627 18.4494 115.449 22.08 111.384 22.6728V22.9692L115.006 23.2656L122.175 41.3445H116.927L112.419 28.8967L111.384 24.8956H107.689H103.402V41.3445H98.4496V0.666847H98.3757ZM107.762 20.45C111.236 20.45 113.601 18.7458 113.601 14.0038V10.7436C113.601 7.18713 111.828 5.18659 108.206 5.18659H103.328V20.45H107.762ZM413.568 28.6744V0.666851H418.52V29.119C418.52 34.8242 420.515 37.5657 424.211 37.5657C427.907 37.5657 429.902 34.8242 429.902 29.119V0.666851H434.854V28.6744C434.854 37.788 431.306 42.0114 424.211 42.0114C417.116 42.0114 413.568 37.788 413.568 28.6744Z" fill="white"/>
</svg>
